<svg width="170" height="43" viewBox="0 0 170 43" fill="none" xmlns="http://www.w3.org/2000/svg">
<g clip-path="url(#clip0)">
<path d="M15.7482 35.5612C15.7034 35.6509 15.7034 35.7855 15.6585 35.8752C14.9855 37.7148 13.2357 38.971 11.2616 38.971C8.70415 38.971 6.59542 36.8623 6.59542 34.3049V32.1962H2.69202V34.3049C2.69202 39.0159 6.55055 42.8744 11.2616 42.8744C14.8958 42.8744 18.1262 40.5862 19.3376 37.1764C19.517 36.638 19.6516 36.0996 19.7414 35.5612H15.7482Z" fill="#033349"/>
<path d="M11.7102 9H10.8129C4.8456 9 0 13.8456 0 19.8129V29.9528H22.568V19.8129C22.568 13.8456 17.7224 9 11.7102 9Z" fill="#033349"/>
<path d="M31.1376 9.71777H37.1946C43.6105 9.71777 47.6934 13.8904 47.6934 19.8577C47.6934 25.8249 43.7451 29.9527 37.2395 29.9527H31.0927V9.71777H31.1376ZM37.1049 27.7093C42.0402 27.7093 45.136 24.4341 45.136 19.8577C45.136 15.2364 41.9505 11.9611 37.1946 11.9611H33.6053V27.7093H37.1049Z" fill="#033349"/>
<path d="M49.7123 23.133C49.7123 19.0501 52.5389 15.9094 56.4872 15.9094C58.5511 15.9094 60.3458 16.8965 61.3328 18.5566L61.3777 18.5117V16.044H63.6659V29.9078H61.4226V27.3953H61.3777C60.3906 29.0554 58.6857 30.0873 56.3975 30.0873C52.6735 30.1322 49.7123 27.3504 49.7123 23.133ZM61.4674 23.133C61.4674 20.2615 59.5381 18.0182 56.8013 18.0182C54.199 18.0182 52.0454 20.0372 52.0454 23.133C52.0454 25.9147 53.9747 28.0234 56.8013 28.0234C59.4035 28.0234 61.4674 26.0942 61.4674 23.133Z" fill="#033349"/>
<path d="M67.5692 25.8249V18.063H65.7745V16.0889H67.5692V11.3778L69.8574 11.1086V16.0889H74.4338V18.063H69.8574V25.466C69.8574 27.1261 70.2164 27.9337 71.5624 27.9337C72.37 27.9337 73.2224 27.5747 73.9403 27.2158L74.5235 29.2348C73.7608 29.6835 72.8186 30.0873 71.1585 30.0873C68.6909 30.1321 67.5692 28.6515 67.5692 25.8249Z" fill="#033349"/>
<path d="M75.421 23.133C75.421 19.0501 78.2476 15.9094 82.1958 15.9094C84.2597 15.9094 86.0544 16.8965 87.0415 18.5566L87.0863 18.5117V16.044H89.3745V29.9078H87.1312V27.3953H87.0863C86.0992 29.0554 84.3943 30.0873 82.1061 30.0873C78.3373 30.1322 75.421 27.3504 75.421 23.133ZM87.176 23.133C87.176 20.2615 85.2468 18.0182 82.5099 18.0182C79.9076 18.0182 77.754 20.0372 77.754 23.133C77.754 25.9147 79.6833 28.0234 82.5099 28.0234C85.0673 28.0234 87.176 26.0942 87.176 23.133Z" fill="#033349"/>
<path d="M113.558 24.4343V16.0442H117.282V23.4921C117.282 26.0495 118.044 26.9019 119.794 26.9019C121.409 26.9019 122.89 25.5111 122.89 22.8639V16.0891H126.659V30.0426H122.845V28.3377L122.8 28.2928C121.723 29.5939 120.243 30.2221 118.717 30.2221C115.666 30.2221 113.558 28.6966 113.558 24.4343Z" fill="#033349"/>
<path d="M128.812 23.0431C128.812 18.8257 131.639 15.8196 135.363 15.8196C136.978 15.8196 138.459 16.4477 139.491 17.6591L139.535 17.6142V15.999H143.259V29.9526H139.715V28.3374L139.67 28.2925C138.683 29.5488 137.292 30.2218 135.497 30.2218C131.639 30.2218 128.812 27.3503 128.812 23.0431ZM139.715 23.088C139.715 20.8446 138.189 19.1846 136.17 19.1846C134.151 19.1846 132.626 20.71 132.626 23.088C132.626 25.3313 134.062 26.9017 136.17 26.9017C138.055 26.8568 139.715 25.3762 139.715 23.088Z" fill="#033349"/>
<path d="M146.221 16.0439H149.945V18.0629H149.989C151.066 16.6272 152.547 15.8196 154.162 15.8196H154.431V19.9025C154.027 19.8576 153.669 19.8576 153.444 19.8576C151.156 19.8576 149.9 21.3831 149.9 23.4918V29.9526H146.176V16.0439H146.221Z" fill="#033349"/>
<path d="M155.418 23.0432C155.418 18.8257 158.29 15.8196 162.014 15.8196C163.719 15.8196 165.199 16.4478 166.231 17.6592H166.276V11.1086H170V29.9975H166.456V28.2926H166.366C165.379 29.5489 163.943 30.2667 162.059 30.2667C158.245 30.2219 155.418 27.3504 155.418 23.0432ZM166.411 23.088C166.411 20.8447 164.885 19.1847 162.777 19.1847C160.802 19.1847 159.232 20.7101 159.232 23.088C159.232 25.3314 160.713 26.9017 162.777 26.9017C164.84 26.8569 166.411 25.3763 166.411 23.088Z" fill="#033349"/>
<path d="M102.969 18.9604V22.1908H106.783V25.3763C105.482 26.1839 104.181 26.5429 102.7 26.5429C98.8863 26.5429 96.5532 23.6266 96.5532 19.9026C96.5532 15.7749 99.1555 13.3072 102.521 13.3072C104.764 13.3072 106.469 14.1597 107.725 15.4159L110.552 12.9483C108.488 10.6601 105.392 9.49353 102.521 9.49353C96.1943 9.49353 92.3806 13.9802 92.3806 19.9026C92.3806 26.4083 96.8673 30.1771 102.7 30.1771C105.796 30.1771 108.847 29.1452 110.686 27.6646V18.9604H102.969Z" fill="#033349"/>
</g>
<defs>
<clipPath id="clip0">
<rect width="170" height="43" fill="white"/>
</clipPath>
</defs>
</svg>
